<svg width="1840" height="1840" viewBox="0 0 1840 1840" fill="none" xmlns="http://www.w3.org/2000/svg">
<rect x="802.033" y="348.285" width="8" height="58" rx="4" transform="rotate(-11.25 802.033 348.285)" fill="#6FA9B4"/>
<rect x="1018.39" y="1435.98" width="8" height="58" rx="4" transform="rotate(-11.25 1018.39 1435.98)" fill="#6FA9B4"/>
<rect x="348.283" y="1037.55" width="8" height="58" rx="4" transform="rotate(-101.25 348.283 1037.55)" fill="#6FA9B4"/>
<rect x="1435.97" y="821.195" width="8" height="58" rx="4" transform="rotate(-101.25 1435.97 821.195)" fill="#6FA9B4"/>
<rect x="432.406" y="598.941" width="8" height="58" rx="4" transform="rotate(-56.25 432.406 598.941)" fill="#6FA9B4"/>
<rect x="1354.51" y="1215.07" width="8" height="58" rx="4" transform="rotate(-56.25 1354.51 1215.07)" fill="#6FA9B4"/>
<rect x="598.941" y="1407.18" width="8" height="58" rx="4" transform="rotate(-146.25 598.941 1407.18)" fill="#6FA9B4"/>
<rect x="1215.07" y="485.074" width="8" height="58" rx="4" transform="rotate(-146.25 1215.07 485.074)" fill="#6FA9B4"/>
<rect x="592.289" y="436.852" width="8" height="58" rx="4" transform="rotate(-33.75 592.289 436.852)" fill="#6FA9B4"/>
<rect x="1208.42" y="1358.95" width="8" height="58" rx="4" transform="rotate(-33.75 1208.42 1358.95)" fill="#6FA9B4"/>
<rect x="436.852" y="1247.29" width="8" height="58" rx="4" transform="rotate(-123.75 436.852 1247.29)" fill="#6FA9B4"/>
<rect x="1358.95" y="631.164" width="8" height="58" rx="4" transform="rotate(-123.75 1358.95 631.164)" fill="#6FA9B4"/>
<rect x="346.723" y="809.883" width="8" height="58" rx="4" transform="rotate(-78.75 346.723 809.883)" fill="#6FA9B4"/>
<rect x="1434.41" y="1026.24" width="8" height="58" rx="4" transform="rotate(-78.75 1434.41 1026.24)" fill="#6FA9B4"/>
<rect x="809.879" y="1492.86" width="8" height="58" rx="4" transform="rotate(-168.75 809.879 1492.86)" fill="#6FA9B4"/>
<rect x="1026.23" y="405.172" width="8" height="58" rx="4" transform="rotate(-168.75 1026.23 405.172)" fill="#6FA9B4"/>
<rect x="915.789" y="336.293" width="8" height="58" rx="4" fill="#6FA9B4"/>
<rect x="915.789" y="1445.29" width="8" height="58" rx="4" fill="#6FA9B4"/>
<rect x="336.289" y="923.793" width="8" height="58" rx="4" transform="rotate(-90 336.289 923.793)" fill="#6FA9B4"/>
<rect x="1445.29" y="923.793" width="8" height="58" rx="4" transform="rotate(-90 1445.29 923.793)" fill="#6FA9B4"/>
<rect x="504.363" y="510.023" width="8" height="58" rx="4" transform="rotate(-45 504.363 510.023)" fill="#6FA9B4"/>
<rect x="1288.54" y="1294.2" width="8" height="58" rx="4" transform="rotate(-45 1288.54 1294.2)" fill="#6FA9B4"/>
<rect x="510.021" y="1335.22" width="8" height="58" rx="4" transform="rotate(-135 510.021 1335.22)" fill="#6FA9B4"/>
<rect x="1294.2" y="551.039" width="8" height="58" rx="4" transform="rotate(-135 1294.2 551.039)" fill="#6FA9B4"/>
<rect x="692.797" y="382.238" width="8" height="58" rx="4" transform="rotate(-22.5 692.797 382.238)" fill="#6FA9B4"/>
<rect x="1117.19" y="1406.82" width="8" height="58" rx="4" transform="rotate(-22.5 1117.19 1406.82)" fill="#6FA9B4"/>
<rect x="382.234" y="1146.78" width="8" height="58" rx="4" transform="rotate(-112.5 382.234 1146.78)" fill="#6FA9B4"/>
<rect x="1406.82" y="722.387" width="8" height="58" rx="4" transform="rotate(-112.5 1406.82 722.387)" fill="#6FA9B4"/>
<rect x="379.174" y="700.191" width="8" height="58" rx="4" transform="rotate(-67.5 379.174 700.191)" fill="#6FA9B4"/>
<rect x="1403.76" y="1124.59" width="8" height="58" rx="4" transform="rotate(-67.5 1403.76 1124.59)" fill="#6FA9B4"/>
<rect x="700.188" y="1460.41" width="8" height="58" rx="4" transform="rotate(-157.5 700.188 1460.41)" fill="#6FA9B4"/>
<rect x="1124.58" y="435.824" width="8" height="58" rx="4" transform="rotate(-157.5 1124.58 435.824)" fill="#6FA9B4"/>
</svg>
