<svg width="950" height="950" viewBox="0 0 950 950" fill="none" xmlns="http://www.w3.org/2000/svg">
<g filter="url(#filter0_f)">
<path d="M536 544C536 547.866 532.866 551 529 551C525.134 551 522 547.866 522 544C522 540.134 525.134 537 529 537C532.866 537 536 540.134 536 544ZM523.4 544C523.4 547.093 525.907 549.6 529 549.6C532.093 549.6 534.6 547.093 534.6 544C534.6 540.907 532.093 538.4 529 538.4C525.907 538.4 523.4 540.907 523.4 544Z" fill="#07C4FF"/>
<path d="M499 508.651L501.046 507L525.541 537.348C525.888 537.778 525.82 538.407 525.391 538.754L524.901 539.149C524.471 539.496 523.842 539.429 523.495 538.999L499 508.651Z" fill="#07C4FF"/>
<g filter="url(#filter1_f)">
<circle cx="473" cy="473" r="15" fill="white"/>
</g>
<path d="M473.426 474.533L473.285 482.462L469.868 482.401L470.009 474.472L461.026 474.313L461.091 470.68L470.073 470.84L470.215 462.912L473.632 462.972L473.491 470.901L481.79 471.049L481.726 474.681L473.426 474.533Z" fill="#07C4FF"/>
<path d="M517 473C517 497.301 497.301 517 473 517C448.699 517 429 497.301 429 473C429 448.699 448.699 429 473 429C497.301 429 517 448.699 517 473ZM432.901 473C432.901 495.146 450.854 513.099 473 513.099C495.146 513.099 513.099 495.146 513.099 473C513.099 450.854 495.146 432.901 473 432.901C450.854 432.901 432.901 450.854 432.901 473Z" fill="#07C4FF"/>
</g>
<path d="M470.65 584.514L473.278 584.593L471.956 628.573C471.94 629.125 471.479 629.559 470.927 629.543L470.298 629.524C469.746 629.507 469.312 629.046 469.329 628.494L470.65 584.514Z" fill="#07C4FF" fill-opacity="0.75"/>
<path d="M507.562 579.032C507.878 580.149 507.228 581.314 506.105 581.609C484.27 587.348 461.22 586.456 439.893 579.049C438.796 578.667 438.238 577.456 438.64 576.366C439.041 575.276 440.249 574.72 441.347 575.1C461.839 582.202 483.981 583.058 504.96 577.56C506.084 577.266 507.246 577.914 507.562 579.032Z" fill="#07C4FF" fill-opacity="0.75"/>
<path d="M365.537 471.037L365.458 473.665L321.478 472.343C320.926 472.327 320.492 471.866 320.509 471.314L320.528 470.685C320.544 470.133 321.005 469.699 321.557 469.715L365.537 471.037Z" fill="#07C4FF" fill-opacity="0.75"/>
<path d="M371.02 507.949C369.902 508.265 368.737 507.615 368.442 506.492C362.703 484.657 363.595 461.606 371.003 440.28C371.384 439.183 372.595 438.625 373.685 439.026C374.775 439.428 375.331 440.636 374.951 441.734C367.849 462.226 366.993 484.368 372.491 505.347C372.785 506.471 372.137 507.633 371.02 507.949Z" fill="#07C4FF" fill-opacity="0.75"/>
<path d="M479.014 365.924L476.387 365.845L477.708 321.865C477.725 321.313 478.186 320.879 478.738 320.896L479.366 320.914C479.918 320.931 480.353 321.392 480.336 321.944L479.014 365.924Z" fill="#07C4FF" fill-opacity="0.75"/>
<path d="M442.102 371.406C441.786 370.289 442.436 369.124 443.559 368.829C465.394 363.09 488.445 363.982 509.771 371.39C510.868 371.771 511.426 372.982 511.025 374.072C510.623 375.162 509.415 375.718 508.317 375.338C487.825 368.236 465.683 367.38 444.704 372.878C443.58 373.172 442.418 372.524 442.102 371.406Z" fill="#07C4FF" fill-opacity="0.75"/>
<path d="M584.127 479.401L584.206 476.774L628.186 478.095C628.738 478.112 629.172 478.573 629.156 479.125L629.137 479.753C629.12 480.305 628.659 480.74 628.107 480.723L584.127 479.401Z" fill="#07C4FF" fill-opacity="0.75"/>
<path d="M578.645 442.489C579.763 442.173 580.927 442.823 581.222 443.946C586.961 465.781 586.069 488.832 578.662 510.158C578.28 511.255 577.069 511.813 575.979 511.412C574.889 511.01 574.333 509.802 574.713 508.704C581.815 488.212 582.672 466.07 577.173 445.091C576.879 443.967 577.527 442.805 578.645 442.489Z" fill="#07C4FF" fill-opacity="0.75"/>
<path d="M525.69 604.217C526.185 605.607 525.46 607.138 524.061 607.607C490.985 618.704 455.004 617.452 422.779 604.081C421.417 603.515 420.8 601.938 421.39 600.586C421.981 599.234 423.555 598.619 424.918 599.184C455.897 612.012 490.472 613.215 522.268 602.573C523.667 602.104 525.195 602.827 525.69 604.217Z" fill="#07C4FF" fill-opacity="0.75"/>
<path d="M346.632 525.69C345.243 526.185 343.712 525.46 343.242 524.061C332.145 490.985 333.398 455.004 346.768 422.779C347.334 421.417 348.911 420.8 350.263 421.39C351.616 421.981 352.23 423.555 351.666 424.918C338.838 455.897 337.634 490.472 348.277 522.268C348.745 523.667 348.022 525.195 346.632 525.69Z" fill="#07C4FF" fill-opacity="0.75"/>
<path d="M425.159 346.632C424.664 345.242 425.39 343.712 426.788 343.242C459.865 332.145 495.846 333.398 528.07 346.768C529.433 347.334 530.05 348.911 529.459 350.263C528.869 351.616 527.294 352.23 525.931 351.666C494.953 338.838 460.377 337.634 428.582 348.277C427.182 348.745 425.655 348.022 425.159 346.632Z" fill="#07C4FF" fill-opacity="0.75"/>
<path d="M604.217 425.16C605.607 424.664 607.138 425.39 607.607 426.789C618.704 459.865 617.452 495.846 604.081 528.07C603.515 529.433 601.938 530.05 600.586 529.459C599.234 528.869 598.619 527.294 599.184 525.931C612.012 494.953 613.215 460.377 602.573 428.582C602.104 427.182 602.827 425.655 604.217 425.16Z" fill="#07C4FF" fill-opacity="0.75"/>
<path d="M534.149 686.441L539.211 684.986L546.206 709.333C546.359 709.864 546.052 710.418 545.521 710.57L542.382 711.472C541.851 711.625 541.297 711.318 541.145 710.787L534.149 686.441Z" fill="#07C4FF" fill-opacity="0.75"/>
<path d="M644.828 612.593C646.592 614.111 646.794 616.774 645.244 618.51C614.805 652.586 574.795 676.747 530.393 687.799C485.991 698.852 439.323 696.268 396.461 680.437C394.278 679.631 393.208 677.184 394.055 675.016C394.901 672.849 397.343 671.782 399.527 672.586C440.763 687.783 485.649 690.253 528.357 679.622C571.066 668.991 609.556 645.767 638.856 613.012C640.407 611.278 643.065 611.076 644.828 612.593Z" fill="#07C4FF" fill-opacity="0.75"/>
<path d="M264.308 534.149L265.763 539.211L241.416 546.206C240.885 546.359 240.331 546.052 240.178 545.521L239.276 542.382C239.124 541.851 239.43 541.297 239.961 541.144L264.308 534.149Z" fill="#07C4FF" fill-opacity="0.75"/>
<path d="M338.155 644.828C336.638 646.592 333.974 646.794 332.239 645.244C298.162 614.805 274.002 574.794 262.949 530.393C251.897 485.991 254.481 439.323 270.312 396.461C271.118 394.278 273.565 393.208 275.733 394.055C277.9 394.901 278.967 397.343 278.163 399.527C262.966 440.762 260.496 485.648 271.127 528.357C281.758 571.066 304.982 609.556 337.737 638.856C339.471 640.407 339.673 643.064 338.155 644.828Z" fill="#07C4FF" fill-opacity="0.75"/>
<path d="M416.6 264.308L411.538 265.762L404.542 241.416C404.39 240.885 404.697 240.331 405.227 240.178L408.367 239.276C408.898 239.124 409.452 239.43 409.604 239.961L416.6 264.308Z" fill="#07C4FF" fill-opacity="0.75"/>
<path d="M305.92 338.155C304.157 336.638 303.954 333.974 305.505 332.239C335.943 298.162 375.954 274.002 420.356 262.949C464.758 251.897 511.426 254.481 554.288 270.312C556.47 271.118 557.54 273.565 556.694 275.733C555.847 277.9 553.405 278.967 551.222 278.163C509.986 262.966 465.1 260.496 422.391 271.127C379.683 281.758 341.193 304.982 311.893 337.737C310.341 339.471 307.684 339.673 305.92 338.155Z" fill="#07C4FF" fill-opacity="0.75"/>
<path d="M686.441 416.6L684.986 411.538L709.333 404.543C709.864 404.39 710.418 404.697 710.57 405.228L711.472 408.367C711.625 408.898 711.318 409.452 710.787 409.604L686.441 416.6Z" fill="#07C4FF" fill-opacity="0.75"/>
<path d="M612.593 305.921C614.111 304.157 616.774 303.955 618.51 305.505C652.586 335.944 676.747 375.954 687.799 420.356C698.852 464.758 696.268 511.426 680.437 554.288C679.631 556.471 677.184 557.541 675.016 556.694C672.849 555.848 671.782 553.406 672.586 551.222C687.783 509.986 690.253 465.1 679.622 422.392C668.991 379.683 645.767 341.193 613.012 311.893C611.278 310.342 611.076 307.684 612.593 305.921Z" fill="#07C4FF" fill-opacity="0.75"/>
<path d="M294.211 261.852L293.317 269.731L289.92 269.345L290.815 261.466L281.888 260.453L282.298 256.843L291.225 257.857L292.12 249.978L295.516 250.363L294.621 258.242L302.869 259.179L302.459 262.789L294.211 261.852Z" fill="white" fill-opacity="0.75"/>
<path d="M138.459 559.598C127.158 518.486 124.179 475.683 129.686 433.499L154.611 436.482C149.502 475.62 152.265 515.332 162.751 553.474L138.459 559.598Z" fill="#07C4FF"/>
<path d="M139.034 387.954C150.611 346.913 170.287 308.373 196.997 274.417L217.061 288.889C192.28 320.393 174.025 356.149 163.284 394.227L139.034 387.954Z" fill="#07C4FF"/>
<path d="M231.555 642.562L235.538 649.419L232.582 651.135L228.599 644.278L220.83 648.79L219.006 645.649L226.775 641.137L222.792 634.28L225.748 632.563L229.731 639.42L236.909 635.251L238.733 638.393L231.555 642.562Z" fill="white" fill-opacity="0.75"/>
<path d="M387.954 810.582C346.913 799.005 308.373 779.329 274.417 752.619L288.889 732.555C320.393 757.336 356.149 775.591 394.227 786.332L387.954 810.582Z" fill="#07C4FF"/>
<path d="M559.598 811.157C518.486 822.459 475.683 825.437 433.499 819.931L436.482 795.005C475.62 800.114 515.332 797.351 553.474 786.865L559.598 811.157Z" fill="#07C4FF"/>
<path d="M698.578 686.439L702.916 693.077L700.055 694.947L695.717 688.309L688.196 693.224L686.208 690.183L693.729 685.268L689.391 678.63L692.252 676.76L696.59 683.398L703.539 678.857L705.526 681.898L698.578 686.439Z" fill="white" fill-opacity="0.75"/>
<path d="M810.582 561.662C799.005 602.703 779.33 641.243 752.619 675.199L732.555 660.727C757.336 629.223 775.591 593.466 786.332 555.389L810.582 561.662Z" fill="#07C4FF"/>
<path d="M811.157 390.018C822.459 431.13 825.437 473.933 819.931 516.117L795.005 513.134C800.114 473.996 797.351 434.284 786.865 396.142L811.157 390.018Z" fill="#07C4FF"/>
<path d="M735.614 337.441L743.004 340.318L741.764 343.503L734.374 340.626L731.115 348.998L727.73 347.68L730.989 339.308L723.599 336.431L724.839 333.246L732.229 336.123L735.24 328.388L738.626 329.706L735.614 337.441Z" fill="white" fill-opacity="0.75"/>
<path d="M561.662 139.034C602.703 150.612 641.243 170.287 675.199 196.998L660.727 217.062C629.223 192.28 593.466 174.026 555.389 163.285L561.662 139.034Z" fill="#07C4FF"/>
<path d="M390.018 138.46C431.13 127.158 473.933 124.179 516.117 129.686L513.134 154.611C473.996 149.502 434.284 152.266 396.142 162.751L390.018 138.46Z" fill="#07C4FF"/>
<path d="M641.853 773.84C640.893 774.8 639.337 774.8 638.377 773.84C637.417 772.88 637.417 771.324 638.377 770.364L641.853 766.888L645.329 770.364L641.853 773.84Z" fill="#07C4FF"/>
<path d="M682.673 726.865C683.606 725.879 685.161 725.835 686.148 726.768C687.134 727.701 687.177 729.256 686.245 730.243L682.867 733.814L679.295 730.436L682.673 726.865Z" fill="#07C4FF"/>
<path d="M640.004 731.125C639.044 730.165 639.044 728.608 640.004 727.649C640.964 726.689 642.52 726.689 643.48 727.649L646.956 731.125L643.48 734.601L640.004 731.125Z" fill="#07C4FF"/>
<path d="M686.979 769.486C687.965 770.419 688.008 771.974 687.076 772.961C686.143 773.947 684.587 773.99 683.601 773.057L680.029 769.679L683.407 766.108L686.979 769.486Z" fill="#07C4FF"/>
<mask id="path-42-outside-1" maskUnits="userSpaceOnUse" x="637.266" y="725.754" width="51" height="51" fill="black">
<rect fill="white" x="637.266" y="725.754" width="51" height="51"/>
<path d="M687.426 751.334C687.426 764.909 676.421 775.914 662.846 775.914C649.27 775.914 638.266 764.909 638.266 751.334C638.266 737.759 649.27 726.754 662.846 726.754C676.421 726.754 687.426 737.759 687.426 751.334ZM638.577 751.334C638.577 764.737 649.443 775.602 662.846 775.602C676.249 775.602 687.114 764.737 687.114 751.334C687.114 737.931 676.249 727.066 662.846 727.066C649.443 727.066 638.577 737.931 638.577 751.334Z"/>
</mask>
<path d="M687.426 751.334C687.426 764.909 676.421 775.914 662.846 775.914C649.27 775.914 638.266 764.909 638.266 751.334C638.266 737.759 649.27 726.754 662.846 726.754C676.421 726.754 687.426 737.759 687.426 751.334ZM638.577 751.334C638.577 764.737 649.443 775.602 662.846 775.602C676.249 775.602 687.114 764.737 687.114 751.334C687.114 737.931 676.249 727.066 662.846 727.066C649.443 727.066 638.577 737.931 638.577 751.334Z" fill="#07C4FF"/>
<path d="M687.426 751.334C687.426 764.909 676.421 775.914 662.846 775.914C649.27 775.914 638.266 764.909 638.266 751.334C638.266 737.759 649.27 726.754 662.846 726.754C676.421 726.754 687.426 737.759 687.426 751.334ZM638.577 751.334C638.577 764.737 649.443 775.602 662.846 775.602C676.249 775.602 687.114 764.737 687.114 751.334C687.114 737.931 676.249 727.066 662.846 727.066C649.443 727.066 638.577 737.931 638.577 751.334Z" stroke="#07C4FF" stroke-width="1.5" mask="url(#path-42-outside-1)"/>
<path d="M272.321 224.921C271.361 225.881 269.804 225.881 268.844 224.921C267.884 223.961 267.884 222.405 268.844 221.445L272.321 217.969L275.797 221.445L272.321 224.921Z" fill="#07C4FF"/>
<path d="M313.14 177.946C314.073 176.96 315.629 176.916 316.615 177.849C317.601 178.782 317.645 180.338 316.712 181.324L313.334 184.896L309.762 181.518L313.14 177.946Z" fill="#07C4FF"/>
<path d="M270.471 182.206C269.511 181.246 269.511 179.689 270.471 178.73C271.431 177.77 272.987 177.77 273.947 178.73L277.423 182.206L273.947 185.682L270.471 182.206Z" fill="#07C4FF"/>
<path d="M317.446 220.567C318.432 221.5 318.476 223.055 317.543 224.042C316.61 225.028 315.054 225.071 314.068 224.138L310.496 220.761L313.874 217.189L317.446 220.567Z" fill="#07C4FF"/>
<mask id="path-47-outside-2" maskUnits="userSpaceOnUse" x="267.733" y="176.835" width="51" height="51" fill="black">
<rect fill="white" x="267.733" y="176.835" width="51" height="51"/>
<path d="M317.893 202.415C317.893 215.99 306.888 226.995 293.313 226.995C279.738 226.995 268.733 215.99 268.733 202.415C268.733 188.84 279.738 177.835 293.313 177.835C306.888 177.835 317.893 188.84 317.893 202.415ZM269.045 202.415C269.045 215.818 279.91 226.683 293.313 226.683C306.716 226.683 317.581 215.818 317.581 202.415C317.581 189.012 306.716 178.147 293.313 178.147C279.91 178.147 269.045 189.012 269.045 202.415Z"/>
</mask>
<path d="M317.893 202.415C317.893 215.99 306.888 226.995 293.313 226.995C279.738 226.995 268.733 215.99 268.733 202.415C268.733 188.84 279.738 177.835 293.313 177.835C306.888 177.835 317.893 188.84 317.893 202.415ZM269.045 202.415C269.045 215.818 279.91 226.683 293.313 226.683C306.716 226.683 317.581 215.818 317.581 202.415C317.581 189.012 306.716 178.147 293.313 178.147C279.91 178.147 269.045 189.012 269.045 202.415Z" fill="#07C4FF"/>
<path d="M317.893 202.415C317.893 215.99 306.888 226.995 293.313 226.995C279.738 226.995 268.733 215.99 268.733 202.415C268.733 188.84 279.738 177.835 293.313 177.835C306.888 177.835 317.893 188.84 317.893 202.415ZM269.045 202.415C269.045 215.818 279.91 226.683 293.313 226.683C306.716 226.683 317.581 215.818 317.581 202.415C317.581 189.012 306.716 178.147 293.313 178.147C279.91 178.147 269.045 189.012 269.045 202.415Z" stroke="#07C4FF" stroke-width="1.5" mask="url(#path-47-outside-2)"/>
<g filter="url(#filter2_f)">
<path d="M836.168 665.759L814.958 654.272L817.19 650.15L818.854 651.051L817.767 653.059L835.65 662.744L836.737 660.736L838.4 661.637L836.168 665.759ZM845.322 641.398C844.594 642.743 843.63 643.72 842.43 644.329C841.234 644.931 839.901 645.171 838.43 645.05C836.952 644.925 835.437 644.442 833.884 643.601L833.658 643.479C832.105 642.638 830.875 641.638 829.966 640.48C829.054 639.31 828.525 638.057 828.379 636.719C828.226 635.378 828.514 634.035 829.243 632.689C830.014 631.265 830.999 630.258 832.199 629.667C833.394 629.065 834.724 628.841 836.186 628.995C837.641 629.144 839.145 629.64 840.698 630.481L840.924 630.603C842.476 631.444 843.717 632.435 844.644 633.576C845.565 634.713 846.1 635.946 846.249 637.277C846.403 638.6 846.094 639.974 845.322 641.398ZM843.562 640.444C844.124 639.407 844.32 638.43 844.149 637.514C843.983 636.591 843.52 635.729 842.759 634.929C841.992 634.124 840.996 633.391 839.773 632.728L839.526 632.594C838.309 631.935 837.16 631.512 836.077 631.323C834.991 631.124 834.016 631.207 833.152 631.572C832.281 631.933 831.568 632.625 831.014 633.648C830.506 634.586 830.337 635.522 830.507 636.456C830.677 637.39 831.132 638.275 831.873 639.111C832.607 639.944 833.578 640.687 834.788 641.342L835.035 641.476C836.251 642.135 837.416 642.548 838.528 642.716C839.633 642.879 840.624 642.777 841.499 642.409C842.367 642.036 843.054 641.382 843.562 640.444ZM858.445 624.627L856.781 623.726L857.874 621.708L839.991 612.023L838.898 614.041L837.235 613.14L839.473 609.007L860.683 620.494L858.445 624.627Z" fill="white" fill-opacity="0.75"/>
</g>
<g filter="url(#filter3_f)">
<path d="M178.545 753.68L194.444 735.54L197.969 738.63L196.722 740.053L195.005 738.548L181.6 753.842L183.317 755.347L182.07 756.769L178.545 753.68ZM200.274 768.002C199.124 766.994 198.384 765.837 198.056 764.532C197.734 763.233 197.795 761.879 198.239 760.472C198.688 759.058 199.494 757.687 200.658 756.359L200.827 756.167C201.991 754.839 203.239 753.86 204.57 753.23C205.913 752.6 207.252 752.361 208.589 752.516C209.931 752.664 211.177 753.242 212.327 754.251C213.545 755.318 214.309 756.502 214.62 757.802C214.942 759.102 214.866 760.447 214.393 761.84C213.924 763.226 213.108 764.583 211.944 765.911L211.775 766.103C210.611 767.431 209.37 768.421 208.052 769.073C206.739 769.719 205.418 769.967 204.087 769.819C202.763 769.675 201.492 769.07 200.274 768.002ZM201.594 766.497C202.481 767.274 203.39 767.682 204.321 767.718C205.258 767.761 206.201 767.5 207.15 766.935C208.105 766.365 209.04 765.557 209.958 764.51L210.143 764.299C211.055 763.259 211.722 762.231 212.146 761.217C212.581 760.203 212.716 759.234 212.551 758.31C212.392 757.381 211.875 756.532 211 755.765C210.198 755.063 209.323 754.691 208.374 754.649C207.426 754.608 206.462 754.856 205.482 755.393C204.508 755.924 203.568 756.707 202.661 757.741L202.476 757.952C201.564 758.993 200.903 760.037 200.494 761.085C200.089 762.126 199.97 763.114 200.135 764.049C200.306 764.978 200.792 765.794 201.594 766.497ZM213.722 784.513L214.969 783.09L216.695 784.603L230.1 769.309L228.374 767.796L229.621 766.374L233.156 769.471L217.256 787.611L213.722 784.513Z" fill="white" fill-opacity="0.75"/>
</g>
<g filter="url(#filter4_f)">
<path d="M139.685 286.947L119.278 274.087L121.777 270.121L123.378 271.13L122.161 273.061L139.367 283.903L140.584 281.972L142.184 282.981L139.685 286.947ZM150.425 263.241C149.609 264.536 148.583 265.447 147.346 265.976C146.113 266.497 144.766 266.649 143.307 266.432C141.84 266.21 140.36 265.628 138.866 264.686L138.649 264.55C137.155 263.608 135.993 262.53 135.162 261.314C134.329 260.086 133.884 258.801 133.827 257.457C133.763 256.108 134.139 254.787 134.954 253.492C135.818 252.122 136.867 251.182 138.103 250.671C139.336 250.15 140.677 250.014 142.126 250.263C143.568 250.508 145.036 251.102 146.53 252.043L146.747 252.18C148.241 253.121 149.413 254.192 150.264 255.391C151.107 256.587 151.56 257.853 151.621 259.19C151.687 260.521 151.288 261.871 150.425 263.241ZM148.731 262.174C149.36 261.176 149.62 260.214 149.511 259.289C149.405 258.357 149 257.466 148.294 256.617C147.581 255.764 146.636 254.967 145.459 254.225L145.221 254.075C144.051 253.337 142.931 252.839 141.864 252.58C140.793 252.309 139.815 252.328 138.929 252.635C138.036 252.938 137.279 253.581 136.658 254.566C136.09 255.468 135.86 256.391 135.967 257.334C136.075 258.277 136.471 259.19 137.156 260.074C137.833 260.953 138.753 261.759 139.917 262.492L140.154 262.642C141.325 263.379 142.46 263.868 143.559 264.109C144.651 264.345 145.645 264.308 146.543 263.998C147.433 263.684 148.163 263.076 148.731 262.174ZM164.624 247.372L163.023 246.363L164.247 244.421L147.041 233.579L145.818 235.521L144.217 234.512L146.723 230.536L167.13 243.396L164.624 247.372Z" fill="white" fill-opacity="0.75"/>
</g>
<rect x="459.242" width="22.5118" height="31.5166" fill="#07C4FF" fill-opacity="0.75"/>
<rect x="459.242" y="918.483" width="22.5118" height="31.5166" fill="#07C4FF" fill-opacity="0.75"/>
<rect x="144.832" y="816.584" width="22.5118" height="31.5166" transform="rotate(-135 144.832 816.584)" fill="#07C4FF" fill-opacity="0.75"/>
<rect x="796.549" y="167.118" width="22.5118" height="31.5166" transform="rotate(-135 796.549 167.118)" fill="#07C4FF" fill-opacity="0.75"/>
<rect y="486.256" width="22.5118" height="31.5166" transform="rotate(-90 0 486.256)" fill="#07C4FF" fill-opacity="0.75"/>
<rect x="918.483" y="486.256" width="22.5118" height="31.5166" transform="rotate(-90 918.483 486.256)" fill="#07C4FF" fill-opacity="0.75"/>
<rect x="128.914" y="149.335" width="22.5118" height="31.5166" transform="rotate(-45 128.914 149.335)" fill="#07C4FF" fill-opacity="0.75"/>
<rect x="778.38" y="798.801" width="22.5118" height="31.5166" transform="rotate(-45 778.38 798.801)" fill="#07C4FF" fill-opacity="0.75"/>
<path d="M920.735 475C920.735 721.172 721.172 920.735 475 920.735C228.828 920.735 29.2654 721.172 29.2654 475C29.2654 228.828 228.828 29.2654 475 29.2654C721.172 29.2654 920.735 228.828 920.735 475ZM34.9181 475C34.9181 718.051 231.949 915.082 475 915.082C718.051 915.082 915.082 718.051 915.082 475C915.082 231.949 718.051 34.9181 475 34.9181C231.949 34.9181 34.9181 231.949 34.9181 475Z" fill="#07C4FF" fill-opacity="0.75"/>
<defs>
<filter id="filter0_f" x="425" y="425" width="115" height="130" filterUnits="userSpaceOnUse" color-interpolation-filters="sRGB">
<feFlood flood-opacity="0" result="BackgroundImageFix"/>
<feBlend mode="normal" in="SourceGraphic" in2="BackgroundImageFix" result="shape"/>
<feGaussianBlur stdDeviation="2" result="effect1_foregroundBlur"/>
</filter>
<filter id="filter1_f" x="443" y="443" width="60" height="60" filterUnits="userSpaceOnUse" color-interpolation-filters="sRGB">
<feFlood flood-opacity="0" result="BackgroundImageFix"/>
<feBlend mode="normal" in="SourceGraphic" in2="BackgroundImageFix" result="shape"/>
<feGaussianBlur stdDeviation="7.5" result="effect1_foregroundBlur"/>
</filter>
<filter id="filter2_f" x="810.958" y="605.007" width="53.7251" height="64.752" filterUnits="userSpaceOnUse" color-interpolation-filters="sRGB">
<feFlood flood-opacity="0" result="BackgroundImageFix"/>
<feBlend mode="normal" in="SourceGraphic" in2="BackgroundImageFix" result="shape"/>
<feGaussianBlur stdDeviation="2" result="effect1_foregroundBlur"/>
</filter>
<filter id="filter3_f" x="174.545" y="731.54" width="62.6108" height="60.0704" filterUnits="userSpaceOnUse" color-interpolation-filters="sRGB">
<feFlood flood-opacity="0" result="BackgroundImageFix"/>
<feBlend mode="normal" in="SourceGraphic" in2="BackgroundImageFix" result="shape"/>
<feGaussianBlur stdDeviation="2" result="effect1_foregroundBlur"/>
</filter>
<filter id="filter4_f" x="115.278" y="226.536" width="55.8515" height="64.4109" filterUnits="userSpaceOnUse" color-interpolation-filters="sRGB">
<feFlood flood-opacity="0" result="BackgroundImageFix"/>
<feBlend mode="normal" in="SourceGraphic" in2="BackgroundImageFix" result="shape"/>
<feGaussianBlur stdDeviation="2" result="effect1_foregroundBlur"/>
</filter>
</defs>
</svg>
