<svg width="1840" height="1840" viewBox="0 0 1840 1840" fill="none" xmlns="http://www.w3.org/2000/svg">
<path d="M1578.67 901.226C1584.19 901.067 1588.54 896.461 1588.3 890.943C1582.79 764.978 1541.79 643.056 1469.92 539.29C1398.06 435.523 1298.35 354.261 1182.36 304.802C1177.28 302.636 1171.44 305.092 1169.35 310.204L1161.59 329.194C1159.5 334.306 1161.95 340.138 1167.03 342.309C1275.75 388.795 1369.22 465.041 1436.61 562.358C1504.01 659.674 1542.51 773.987 1547.8 892.109C1548.04 897.627 1552.64 901.975 1558.16 901.816L1578.67 901.226Z" fill="#58A5C2"/>
<path d="M1423.8 511.34C1425.57 509.901 1425.84 507.295 1424.39 505.531C1362.88 430.695 1285.48 370.483 1197.82 329.259C1195.75 328.287 1193.29 329.191 1192.33 331.264V331.264C1191.38 333.337 1192.28 335.794 1194.35 336.766C1280.87 377.459 1357.25 436.887 1417.97 510.742C1419.42 512.507 1422.02 512.779 1423.8 511.34V511.34Z" fill="#222222"/>
<circle cx="1565.93" cy="853.207" r="7" fill="black"/>
<circle cx="1561.93" cy="824.207" r="7" fill="black"/>
<circle cx="1556.93" cy="796.207" r="7" fill="black"/>
<circle cx="1550.93" cy="770.207" r="7" fill="black"/>
<circle cx="1543.93" cy="744.207" r="7" fill="black"/>
<circle cx="1537.43" cy="717.896" r="7" transform="rotate(-12 1537.43 717.896)" fill="black"/>
<circle cx="1527.48" cy="690.36" r="7" transform="rotate(-12 1527.48 690.36)" fill="black"/>
<circle cx="1516.77" cy="664.013" r="7" transform="rotate(-12 1516.77 664.013)" fill="black"/>
<circle cx="1505.5" cy="639.829" r="7" transform="rotate(-12 1505.5 639.829)" fill="black"/>
<circle cx="1493.24" cy="615.853" r="7" transform="rotate(-12 1493.24 615.853)" fill="black"/>
<path d="M346.727 595.056C341.923 592.331 335.812 594.014 333.159 598.858C269.321 715.433 241.617 848.46 253.707 980.971C265.797 1113.48 317.118 1239.3 400.999 1342.39C404.485 1346.68 410.799 1347.23 415.031 1343.68L430.75 1330.49C434.981 1326.95 435.527 1320.64 432.046 1316.35C353.471 1219.59 305.395 1101.57 294.056 977.289C282.716 853.005 308.64 728.237 368.405 618.85C371.053 614.003 369.376 607.903 364.572 605.178L346.727 595.056Z" fill="#58A5C2"/>
<path d="M1099.78 1554.17C1101.29 1559.48 1106.83 1562.57 1112.12 1560.99C1275.43 1512.01 1413.9 1402.51 1499.2 1254.88C1501.96 1250.1 1500.23 1244 1495.4 1241.31L1477.49 1231.31C1472.67 1228.62 1466.58 1230.36 1463.81 1235.14C1383.76 1373.38 1254.03 1475.97 1101.06 1522C1095.77 1523.6 1092.68 1529.12 1094.18 1534.43L1099.78 1554.17Z" fill="#58A5C2"/>
<path d="M271.19 909.285C268.906 909.248 267.023 911.069 267 913.353C266.019 1010.22 286.603 1106.09 327.259 1194.02C328.218 1196.1 330.683 1196.98 332.75 1196.01V1196.01C334.817 1195.04 335.703 1192.58 334.744 1190.5C294.625 1103.72 274.309 1009.09 275.27 913.489C275.293 911.206 273.473 909.323 271.19 909.285V909.285Z" fill="#222222"/>
<path d="M1099.45 1543.5C1100.08 1545.69 1102.37 1546.96 1104.56 1546.31C1197.48 1518.93 1283.15 1471.22 1355.35 1406.63C1357.05 1405.11 1357.18 1402.49 1355.65 1400.8V1400.8C1354.11 1399.1 1351.5 1398.98 1349.8 1400.5C1278.53 1464.24 1193.98 1511.33 1102.27 1538.37C1100.08 1539.01 1098.82 1541.3 1099.45 1543.5V1543.5Z" fill="#222222"/>
<circle r="7" transform="matrix(-1 0 0 1 273.963 857.414)" fill="black"/>
<circle r="7" transform="matrix(-1 0 0 1 277.963 828.414)" fill="black"/>
<circle r="7" transform="matrix(-1 0 0 1 282.963 800.414)" fill="black"/>
<circle r="7" transform="matrix(-1 0 0 1 288.963 774.414)" fill="black"/>
<circle r="7" transform="matrix(-1 0 0 1 295.963 748.414)" fill="black"/>
<circle r="7" transform="matrix(-0.978148 -0.207912 -0.207912 0.978148 302.467 722.103)" fill="black"/>
<circle r="7" transform="matrix(-0.978148 -0.207912 -0.207912 0.978148 312.409 694.567)" fill="black"/>
<circle r="7" transform="matrix(-0.978148 -0.207912 -0.207912 0.978148 323.121 668.22)" fill="black"/>
<circle r="7" transform="matrix(-0.978148 -0.207912 -0.207912 0.978148 334.397 644.036)" fill="black"/>
<circle r="7" transform="matrix(-0.978148 -0.207912 -0.207912 0.978148 346.649 620.06)" fill="black"/>
</svg>
